v  1.0000 0.0000 0.0000
v  0.8660 0.5000 0.0000
v  0.8660 0.5000 1.9606
v  1.0000 0.0000 1.9606
v  0.5000 0.8660 0.0000
v  0.5000 0.8660 1.9606
v  -0.0000 1.0000 0.0000
v  -0.0000 1.0000 1.9606
v  -0.5000 0.8660 0.0000
v  -0.5000 0.8660 1.9606
v  -0.8660 0.5000 0.0000
v  -0.8660 0.5000 1.9606
v  -1.0000 0.0000 0.0000
v  -1.0000 0.0000 1.9606
v  -0.8660 -0.5000 0.0000
v  -0.8660 -0.5000 1.9606
v  -0.5000 -0.8660 0.0000
v  -0.5000 -0.8660 1.9606
v  -0.0000 -1.0000 0.0000
v  -0.0000 -1.0000 1.9606
v  0.5000 -0.8660 0.0000
v  0.5000 -0.8660 1.9606
v  0.8660 -0.5000 0.0000
v  0.8660 -0.5000 1.9606
v  1.6928 0.9773 2.0394
v  1.9546 0.0000 2.0394
v  0.9773 1.6928 2.0394
v  0.0000 1.9546 2.0394
v  -0.9773 1.6928 2.0394
v  -1.6928 0.9773 2.0394
v  -1.9546 0.0000 2.0394
v  -1.6928 -0.9773 2.0394
v  -0.9773 -1.6928 2.0394
v  -0.0000 -1.9546 2.0394
v  0.9773 -1.6928 2.0394
v  1.6928 -0.9773 2.0394
v  0.0128 0.0531 5.2279
vn 1.0000 -0.0000 0.0000
vn 0.8660 0.5000 -0.0000
vn 0.5843 0.3373 -0.7381
vn 0.6747 -0.0000 -0.7381
vn 0.5000 0.8660 0.0000
vn 0.3373 0.5843 -0.7381
vn -0.0000 1.0000 0.0000
vn -0.0000 0.6747 -0.7381
vn -0.5000 0.8660 0.0000
vn -0.3373 0.5843 -0.7381
vn -0.8660 0.5000 0.0000
vn -0.5843 0.3373 -0.7381
vn -1.0000 0.0000 0.0000
vn -0.6747 0.0000 -0.7381
vn -0.8660 -0.5000 0.0000
vn -0.5843 -0.3373 -0.7381
vn -0.5000 -0.8660 0.0000
vn -0.3373 -0.5843 -0.7381
vn -0.0000 -1.0000 -0.0000
vn -0.0000 -0.6747 -0.7381
vn 0.5000 -0.8660 -0.0000
vn 0.3373 -0.5843 -0.7381
vn 0.8660 -0.5000 0.0000
vn 0.5843 -0.3373 -0.7381
vn 0.7916 0.4555 -0.4073
vn 0.9143 -0.0017 -0.4049
vn 0.4568 0.7901 -0.4088
vn -0.0004 0.9126 -0.4088
vn -0.4577 0.7902 -0.4075
vn -0.7926 0.4556 -0.4052
vn -0.9154 -0.0017 -0.4025
vn -0.7930 -0.4594 -0.4001
vn -0.4581 -0.7945 -0.3987
vn -0.0004 -0.9171 -0.3987
vn 0.4572 -0.7944 -0.3999
vn 0.7920 -0.4593 -0.4022
vn 0.0030 0.0123 0.9999
vn 0.0000 0.0000 -1.0000
vt 0.7642 0.5208 0.0000
vt 0.8105 0.5208 0.0000
vt 0.8105 0.7217 0.0000
vt 0.7642 0.7217 0.0000
vt 0.8567 0.5208 0.0000
vt 0.8567 0.7217 0.0000
vt 0.9029 0.5208 0.0000
vt 0.9029 0.7217 -0.0000
vt 0.9492 0.5208 0.0000
vt 0.9492 0.7217 0.0000
vt 0.3944 0.5208 0.0000
vt 0.4406 0.5208 0.0000
vt 0.4406 0.7217 0.0000
vt 0.3944 0.7217 0.0000
vt 0.4869 0.5208 0.0000
vt 0.4869 0.7217 0.0000
vt 0.5331 0.5208 0.0000
vt 0.5331 0.7217 0.0000
vt 0.5793 0.5208 -0.0000
vt 0.5793 0.7217 -0.0000
vt 0.6255 0.5208 0.0000
vt 0.6255 0.7217 0.0000
vt 0.6718 0.5208 0.0000
vt 0.6718 0.7217 0.0000
vt 0.7180 0.5208 0.0000
vt 0.7180 0.7217 0.0000
vt 0.1893 0.8040 -0.0029
vt 0.1414 0.7912 -0.0029
vt 0.0957 0.8704 0.0029
vt 0.1893 0.8955 0.0029
vt 0.1063 0.7561 -0.0029
vt 0.0271 0.8018 0.0029
vt 0.0935 0.7082 -0.0029
vt 0.0020 0.7082 0.0029
vt 0.1063 0.6602 -0.0029
vt 0.0271 0.6145 0.0029
vt 0.1414 0.6252 -0.0029
vt 0.0957 0.5459 0.0029
vt 0.1893 0.6123 -0.0029
vt 0.1893 0.5208 0.0029
vt 0.2372 0.6252 -0.0029
vt 0.2830 0.5459 0.0029
vt 0.2723 0.6602 -0.0029
vt 0.3515 0.6145 0.0029
vt 0.2852 0.7082 -0.0029
vt 0.3766 0.7082 0.0029
vt 0.2723 0.7561 -0.0029
vt 0.3515 0.8018 0.0029
vt 0.2372 0.7912 -0.0029
vt 0.2830 0.8704 0.0029
vt 0.0020 0.0020 0.4110
vt 0.0705 0.0020 0.4110
vt 0.1764 0.5031 -0.4110
vt 0.1389 0.0020 0.4110
vt 0.2074 0.0020 0.4110
vt 0.2759 0.0020 0.4110
vt 0.3443 0.0020 0.4110
vt 0.4128 0.0020 0.4110
vt 0.4813 0.0020 0.4110
vt 0.5497 0.0020 0.4110
vt 0.6182 0.0020 0.4110
vt 0.6867 0.0020 0.4110
vt 0.9980 0.5031 -0.4110
vt 0.7551 0.0020 0.4110
vt 0.8236 0.0020 0.4110
vt 0.5729 0.8829 0.0000
vt 0.5857 0.8351 0.0000
vt 0.5729 0.7873 0.0000
vt 0.5379 0.7523 0.0000
vt 0.4900 0.7395 0.0000
vt 0.4422 0.7523 0.0000
vt 0.4072 0.7873 0.0000
vt 0.3944 0.8351 0.0000
vt 0.4072 0.8829 0.0000
vt 0.4422 0.9180 0.0000
vt 0.4900 0.9308 0.0000
vt 0.5379 0.9180 0.0000

f 1/1/1 2/2/2 3/3/3 
f 3/3/3 4/4/4 1/1/1 
f 2/2/2 5/5/5 6/6/6 
f 6/6/6 3/3/3 2/2/2 
f 5/5/5 7/7/7 8/8/8 
f 8/8/8 6/6/6 5/5/5 
f 7/7/7 9/9/9 10/10/10 
f 10/10/10 8/8/8 7/7/7 
f 9/11/9 11/12/11 12/13/12 
f 12/13/12 10/14/10 9/11/9 
f 11/12/11 13/15/13 14/16/14 
f 14/16/14 12/13/12 11/12/11 
f 13/15/13 15/17/15 16/18/16 
f 16/18/16 14/16/14 13/15/13 
f 15/17/15 17/19/17 18/20/18 
f 18/20/18 16/18/16 15/17/15 
f 17/19/17 19/21/19 20/22/20 
f 20/22/20 18/20/18 17/19/17 
f 19/21/19 21/23/21 22/24/22 
f 22/24/22 20/22/20 19/21/19 
f 21/23/21 23/25/23 24/26/24 
f 24/26/24 22/24/22 21/23/21 
f 23/25/23 1/1/1 4/4/4 
f 4/4/4 24/26/24 23/25/23 
f 4/27/4 3/28/3 25/29/25 
f 25/29/25 26/30/26 4/27/4 
f 3/28/3 6/31/6 27/32/27 
f 27/32/27 25/29/25 3/28/3 
f 6/31/6 8/33/8 28/34/28 
f 28/34/28 27/32/27 6/31/6 
f 8/33/8 10/35/10 29/36/29 
f 29/36/29 28/34/28 8/33/8 
f 10/35/10 12/37/12 30/38/30 
f 30/38/30 29/36/29 10/35/10 
f 12/37/12 14/39/14 31/40/31 
f 31/40/31 30/38/30 12/37/12 
f 14/39/14 16/41/16 32/42/32 
f 32/42/32 31/40/31 14/39/14 
f 16/41/16 18/43/18 33/44/33 
f 33/44/33 32/42/32 16/41/16 
f 18/43/18 20/45/20 34/46/34 
f 34/46/34 33/44/33 18/43/18 
f 20/45/20 22/47/22 35/48/35 
f 35/48/35 34/46/34 20/45/20 
f 22/47/22 24/49/24 36/50/36 
f 36/50/36 35/48/35 22/47/22 
f 24/49/24 4/27/4 26/30/26 
f 26/30/26 36/50/36 24/49/24 
f 26/51/26 25/52/25 37/53/37 
f 25/52/25 27/54/27 37/53/37 
f 27/54/27 28/55/28 37/53/37 
f 28/55/28 29/56/29 37/53/37 
f 29/56/29 30/57/30 37/53/37 
f 30/57/30 31/58/31 37/53/37 
f 31/58/31 32/59/32 37/53/37 
f 32/59/32 33/60/33 37/53/37 
f 33/60/33 34/61/34 37/53/37 
f 34/61/34 35/62/35 37/63/37 
f 35/62/35 36/64/36 37/63/37 
f 36/64/36 26/65/26 37/63/37 
f 21/66/38 19/67/38 17/68/38 
f 17/68/38 15/69/38 13/70/38 
f 13/70/38 11/71/38 9/72/38 
f 17/68/38 13/70/38 9/72/38 
f 9/72/38 7/73/38 5/74/38 
f 5/74/38 2/75/38 1/76/38 
f 9/72/38 5/74/38 1/76/38 
f 17/68/38 9/72/38 1/76/38 
f 21/66/38 17/68/38 1/76/38 
f 23/77/38 21/66/38 1/76/38 

