# Blender v2.77 (sub 0) OBJ File: 'tv.blend'
# www.blender.org
mtllib tv.mtl
o Cube
v 0.659145 0.511162 -0.977162
v 0.780111 0.420703 -0.220437
v -0.779912 0.420703 -0.220438
v -0.658945 0.511162 -0.977162
v 0.659145 1.496826 -0.977162
v 0.780111 1.587284 -0.220437
v -0.779912 1.587284 -0.220438
v -0.658946 1.496826 -0.977162
v 0.994002 0.281151 -0.993915
v -0.970303 0.279105 -0.983557
v 0.238880 1.724111 -0.752344
v -0.238680 1.724111 -0.752344
v 0.430463 0.704312 -1.401811
v -0.430263 0.704312 -1.401811
v 0.430463 1.303675 -1.401811
v -0.430263 1.303675 -1.401811
v 0.967814 0.258966 -0.197651
v -0.963309 0.285789 -0.224904
v 0.238879 1.724111 -0.446699
v -0.238680 1.724111 -0.446699
v 0.823402 0.388331 -0.220437
v -0.823203 0.388331 -0.220438
v 0.823401 1.619657 -0.220437
v -0.823203 1.619657 -0.220438
v 0.823402 0.388331 -0.171419
v -0.823203 0.388331 -0.171419
v 0.823401 1.619657 -0.171419
v -0.823203 1.619657 -0.171420
v 0.780111 0.420703 -0.171419
v -0.779912 0.420703 -0.171419
v 0.780111 1.587284 -0.171419
v -0.779912 1.587284 -0.171420
v 0.963086 1.724111 -0.978605
v 0.963085 1.724111 -0.220437
v -0.962886 1.724111 -0.978606
v -0.962886 1.724111 -0.220438
v 0.238880 1.724111 -0.752344
v 0.099615 1.818594 -0.620169
v 0.097840 1.814987 -0.578133
v 0.238879 1.724111 -0.446699
v -0.238680 1.724111 -0.752344
v -0.097318 1.819400 -0.621363
v -0.103300 1.817167 -0.576852
v -0.238680 1.724111 -0.446699
v 0.101170 1.823115 -0.599382
v 0.060261 1.817861 -0.621070
v 0.063443 1.821351 -0.577350
v -0.103539 1.819942 -0.597070
v 0.060588 1.818797 -0.600168
v 0.163492 1.824128 -0.599041
v 0.156829 1.815940 -0.508548
v -0.065001 1.817594 -0.621684
v 0.160278 1.819587 -0.689841
v -0.061758 1.820781 -0.576597
v -0.064628 1.818351 -0.599098
v 0.004049 1.820378 -0.500870
v -0.165957 1.817904 -0.503213
v -0.166512 1.820497 -0.596653
v -0.155102 1.819741 -0.694684
v -0.002401 1.816849 -0.698036
v 0.238406 2.287760 -0.601317
v 0.235076 2.279631 -0.580068
v 0.197497 2.282506 -0.623005
v 0.236851 2.283238 -0.622104
v 0.200679 2.285995 -0.579285
v 0.197823 2.283442 -0.602103
v -0.356140 2.507280 -0.578532
v -0.397682 2.503666 -0.578787
v -0.397921 2.506441 -0.599005
v -0.391700 2.505900 -0.623298
v -0.359383 2.504094 -0.623618
v -0.359010 2.504850 -0.601033
v 0.530973 2.588276 -0.601607
v 0.527643 2.580147 -0.580357
v 0.490064 2.583022 -0.623294
v 0.529419 2.583755 -0.622393
v 0.493247 2.586512 -0.579575
v 0.490391 2.583958 -0.602392
v -0.465993 2.678902 -0.579334
v -0.507535 2.675287 -0.579589
v -0.507774 2.678063 -0.599806
v -0.501553 2.677521 -0.624100
v -0.469236 2.675715 -0.624420
v -0.468863 2.676472 -0.601835
v 0.963426 0.284793 -0.603608
v 0.025047 0.282729 -0.959442
v -0.025370 0.277712 -0.205424
v -0.946560 0.279920 -0.608310
v -0.016190 0.296309 -0.609943
v -0.560926 0.293175 -0.468443
v -0.562147 0.279192 -0.350435
v -0.825539 0.288867 -0.362057
v -0.823354 0.278494 -0.467536
v -0.547948 0.283412 -0.823134
v -0.551992 0.291750 -0.750787
v -0.824610 0.278876 -0.749710
v -0.827254 0.284021 -0.837666
v 0.818750 0.285775 -0.845640
v 0.815874 0.282690 -0.745831
v 0.595779 0.291842 -0.749769
v 0.598980 0.284702 -0.824228
v 0.812497 0.279874 -0.463830
v 0.812963 0.269588 -0.340091
v 0.587268 0.282540 -0.344844
v 0.588265 0.285780 -0.467865
v -0.562147 0.279192 -0.350435
v -0.560926 0.293175 -0.468443
v -0.823354 0.278494 -0.467536
v -0.825539 0.288867 -0.362057
v -0.551992 0.291750 -0.750787
v -0.547948 0.283412 -0.823134
v -0.827254 0.284021 -0.837666
v -0.824610 0.278876 -0.749710
v 0.818750 0.285775 -0.845640
v 0.815874 0.282690 -0.745831
v 0.598980 0.284702 -0.824228
v 0.595779 0.291842 -0.749769
v 0.812497 0.279874 -0.463830
v 0.812963 0.269588 -0.340091
v 0.588265 0.285780 -0.467865
v 0.587268 0.282540 -0.344844
v -0.562147 0.279192 -0.350435
v -0.560926 0.293175 -0.468443
v -0.823354 0.278494 -0.467536
v -0.825539 0.288867 -0.362057
v -0.551992 0.291750 -0.750787
v -0.547948 0.283412 -0.823134
v -0.827254 0.284021 -0.837666
v -0.824610 0.278876 -0.749710
v 0.818750 0.285775 -0.845640
v 0.815874 0.282690 -0.745831
v 0.598980 0.284702 -0.824228
v 0.595779 0.291842 -0.749769
v 0.812497 0.279874 -0.463830
v 0.812963 0.269588 -0.340091
v 0.588265 0.285780 -0.467865
v 0.587268 0.282540 -0.344844
v -0.607461 0.007298 -0.434143
v -0.607710 -0.005392 -0.396254
v -0.768764 0.005217 -0.403279
v -0.767986 -0.006371 -0.433666
v -0.589862 -0.001640 -0.781095
v -0.590015 0.005280 -0.783496
v -0.763535 -0.005447 -0.782758
v -0.764003 0.001364 -0.790205
v 0.757584 0.003035 -0.794829
v 0.756984 -0.001989 -0.778831
v 0.639691 0.005408 -0.780989
v 0.639632 -0.000040 -0.783286
v 0.740975 -0.004074 -0.442037
v 0.740991 -0.010074 -0.396033
v 0.617914 -0.001436 -0.398539
v 0.618126 -0.002404 -0.444334
v 0.846960 1.866488 -0.533511
vt 0.4823 0.1810
vt 0.4697 0.2020
vt 0.4815 0.1815
vt 0.4572 0.4415
vt 0.4267 0.2859
vt 0.4800 0.2408
vt 0.9763 0.7278
vt 0.6982 0.5198
vt 0.9763 0.5198
vt 0.0100 0.6014
vt 0.0543 0.1607
vt 0.1141 0.2279
vt 0.6195 0.5083
vt 0.8213 0.4344
vt 0.9147 0.5083
vt 0.6927 0.9532
vt 0.5796 0.9939
vt 0.4576 0.9530
vt 0.6928 0.7774
vt 0.7524 0.9942
vt 0.4037 0.7366
vt 0.4579 0.7772
vt 0.7471 0.7370
vt 0.7134 0.3348
vt 0.8347 0.3470
vt 0.9152 0.2609
vt 0.6200 0.2609
vt 0.7000 0.4223
vt 0.0306 0.7185
vt 0.1783 0.7045
vt 0.3463 0.7258
vt 0.3762 0.9961
vt 0.3515 0.9761
vt 0.0321 0.9670
vt 0.0068 0.6995
vt 0.0061 0.9841
vt 0.3207 0.7527
vt 0.3319 0.9598
vt 0.3210 0.9517
vt 0.0422 0.7272
vt 0.0500 0.9503
vt 0.0580 0.9401
vt 0.0408 0.9559
vt 0.0498 0.7344
vt 0.3378 0.7368
vt 0.3287 0.7425
vt 0.3396 0.9673
vt 0.0604 0.7425
vt 0.3638 0.5426
vt 0.6288 0.6014
vt 0.2701 0.5411
vt 0.3671 0.4746
vt 0.1821 0.4315
vt 0.2800 0.4777
vt 0.2714 0.5392
vt 0.3624 0.5412
vt 0.3660 0.4764
vt 0.2813 0.4790
vt 0.5994 0.2441
vt 0.5714 0.2614
vt 0.5714 0.2637
vt 0.8678 0.8467
vt 0.8898 0.8145
vt 0.8898 0.8833
vt 0.7919 0.8835
vt 0.8419 0.8652
vt 0.8405 0.8331
vt 0.7930 0.8142
vt 0.8138 0.8506
vt 0.9419 0.0358
vt 0.9394 0.2244
vt 0.9373 0.2327
vt 0.8249 0.8497
vt 0.8238 0.8467
vt 0.8512 0.8519
vt 0.8691 0.8616
vt 0.8512 0.8445
vt 0.8660 0.8320
vt 0.8571 0.8444
vt 0.4226 0.1762
vt 0.4360 0.2471
vt 0.4008 0.2276
vt 0.8307 0.8459
vt 0.8126 0.8352
vt 0.8307 0.8535
vt 0.8306 0.8497
vt 0.8167 0.8660
vt 0.8252 0.8535
vt 0.9355 0.2311
vt 0.9246 0.4056
vt 0.9342 0.2261
vt 0.9819 0.0518
vt 0.9732 0.2457
vt 0.9755 0.2443
vt 0.8566 0.8478
vt 0.8578 0.8508
vt 0.9068 0.0180
vt 0.6146 0.2559
vt 0.6091 0.2568
vt 0.9363 0.2343
vt 0.9322 0.4189
vt 0.9242 0.4166
vt 0.6077 0.2560
vt 0.5827 0.2748
vt 0.5824 0.2719
vt 0.9440 0.0315
vt 0.9428 0.0322
vt 0.8926 0.0100
vt 0.5980 0.2418
vt 0.8963 0.0061
vt 0.6784 0.2259
vt 0.6825 0.2252
vt 0.6825 0.2324
vt 0.9322 0.4040
vt 0.9670 0.4230
vt 0.8972 0.0079
vt 0.8983 0.0096
vt 0.9712 0.4235
vt 0.9784 0.2440
vt 0.7010 0.2348
vt 0.7049 0.2278
vt 0.7047 0.2348
vt 0.5934 0.2442
vt 0.5838 0.2761
vt 0.9065 0.0201
vt 0.6070 0.2540
vt 0.1482 0.2407
vt 0.1906 0.2227
vt 0.1488 0.2410
vt 0.1677 0.1503
vt 0.1742 0.1672
vt 0.1677 0.1511
vt 0.1907 0.2219
vt 0.1978 0.2430
vt 0.2965 0.2393
vt 0.2966 0.1484
vt 0.1517 0.2825
vt 0.1983 0.2433
vt 0.1587 0.2600
vt 0.3058 0.0569
vt 0.1103 0.1747
vt 0.1205 0.1947
vt 0.5494 0.1726
vt 0.1747 0.1675
vt 0.4322 0.1590
vt 0.4214 0.2655
vt 0.3907 0.2484
vt 0.1205 0.1929
vt 0.1736 0.1667
vt 0.4010 0.2282
vt 0.4345 0.2477
vt 0.4011 0.2290
vt 0.1110 0.1751
vt 0.1677 0.1520
vt 0.1117 0.1756
vt 0.4353 0.2474
vt 0.4213 0.2643
vt 0.4214 0.2649
vt 0.1588 0.2594
vt 0.4323 0.1596
vt 0.1205 0.1938
vt 0.4698 0.2027
vt 0.4232 0.1757
vt 0.3912 0.2481
vt 0.1760 0.2400
vt 0.1745 0.2426
vt 0.1743 0.2418
vt 0.1417 0.1700
vt 0.1390 0.1710
vt 0.1386 0.1708
vt 0.4556 0.1805
vt 0.4533 0.1799
vt 0.4561 0.1800
vt 0.4120 0.2476
vt 0.4101 0.2471
vt 0.4106 0.2466
vt 0.3918 0.2478
vt 0.1972 0.2426
vt 0.1905 0.2235
vt 0.4696 0.2011
vt 0.4807 0.1821
vt 0.1495 0.2414
vt 0.4323 0.1603
vt 0.1589 0.2587
vt 0.4238 0.1753
vt 0.1762 0.2409
vt 0.1427 0.1699
vt 0.4528 0.1800
vt 0.4113 0.2482
vt 0.9643 0.0594
vt 0.9588 0.2562
vt 0.9570 0.2545
vt 0.6982 0.7278
vt 0.4021 0.9942
vt 0.3755 0.6995
vt 0.5702 0.2664
vt 0.6009 0.2462
vt 0.9455 0.0333
vt 0.8509 0.8484
vt 0.9846 0.0528
vt 0.9830 0.0523
vt 0.9120 0.0194
vt 0.9277 0.4269
vt 0.5824 0.2735
vt 0.6862 0.2326
vt 0.6862 0.2256
vt 0.6784 0.2321
vt 0.9636 0.4252
vt 0.7090 0.2336
vt 0.7009 0.2274
vt 0.7089 0.2278
vt 0.5688 0.2622
vt 0.9062 0.0197
vt 0.9634 0.0593
vt 0.9578 0.2577
vt 0.9655 0.0549
vn 0.0000 0.0000 1.0000
vn 0.9999 0.0031 -0.0106
vn -0.9980 0.0049 0.0631
vn 0.0000 -0.9103 -0.4140
vn 0.0000 -0.0773 -0.9970
vn -0.0500 0.0000 -0.9988
vn 0.0047 0.0000 -1.0000
vn 0.0000 -0.0064 -1.0000
vn 0.0000 0.0000 -1.0000
vn 0.0000 0.9103 -0.4140
vn 0.8804 -0.0000 -0.4741
vn -0.8804 -0.0000 -0.4741
vn -0.0000 0.1345 0.9909
vn -0.0319 0.0000 0.9995
vn -1.0000 -0.0000 0.0000
vn 0.0000 -1.0000 0.0000
vn 0.0000 1.0000 0.0000
vn 1.0000 0.0000 0.0000
vn 0.8419 0.5387 -0.0320
vn 0.7986 0.6019 0.0000
vn 0.0000 0.5053 -0.8629
vn -0.0000 0.4904 0.8715
vn -0.8005 0.5994 -0.0000
vn 0.0231 -0.0110 -0.9997
vn 0.0096 0.9907 0.1359
vn -0.0169 0.9999 0.0006
vn 0.1759 0.9709 -0.1625
vn -0.0259 -0.9994 -0.0222
vn -0.0148 0.9997 0.0182
vn -0.0020 0.9994 -0.0335
vn 0.0554 0.9977 -0.0390
vn 0.0194 -0.0179 0.9997
vn -0.9552 0.2825 0.0879
vn -0.0147 0.9773 -0.2115
vn -0.0061 0.0002 1.0000
vn 0.7117 -0.7019 -0.0302
vn -0.8378 -0.5279 -0.1391
vn 0.0223 -0.0024 0.9997
vn -0.0103 -0.0072 -0.9999
vn -0.1060 0.9342 0.3407
vn 0.0233 -0.0237 -0.9994
vn -0.7165 0.6975 0.0116
vn 0.9093 0.3852 -0.1576
vn -0.7164 0.6974 -0.0201
vn 0.0475 0.9897 0.1353
vn -0.0106 -0.0114 -0.9999
vn -0.0062 0.0007 1.0000
vn -0.9107 -0.3880 -0.1419
vn -0.0062 -0.9989 -0.0461
vn -0.0091 -0.9997 0.0235
vn 0.1212 -0.9876 0.0996
vn 0.0083 -0.9992 0.0398
vn -0.0735 -0.9957 -0.0560
vn -0.0041 -0.9993 0.0377
vn -0.0198 -0.9998 0.0078
vn 0.0472 -0.9989 0.0065
vn 0.0016 -0.9992 0.0390
vn -0.0010 -0.9998 0.0187
vn -0.0440 -0.9956 -0.0826
vn -0.0570 -0.9983 -0.0124
vn -0.0026 -0.9989 -0.0460
vn 0.0803 -0.9307 0.3570
vn 0.0226 -0.7370 -0.6755
vn -0.0045 -0.9540 -0.2998
vn -0.0140 -0.9997 0.0211
vn 0.9868 -0.1617 -0.0090
vn -0.0530 -0.1505 0.9872
vn -0.9806 -0.1961 -0.0010
vn 0.0070 -0.1167 -0.9931
vn -0.7468 0.2032 0.6332
vn 0.0093 -0.1147 0.9934
vn -0.9736 -0.1955 -0.1176
vn 0.0510 -0.1543 -0.9867
vn 0.9780 -0.2077 0.0218
vn -0.0252 -0.1100 0.9936
vn -0.9885 -0.1485 -0.0283
vn -0.0922 -0.1546 -0.9837
vn 0.9690 -0.2459 -0.0241
vn -0.0315 -0.1883 0.9816
vn -0.9944 -0.1053 -0.0108
vn 0.0176 -0.0796 -0.9967
vn 0.9593 -0.2821 0.0163
vn 0.9968 0.0205 0.0779
vn 1.0000 0.0002 0.0000
vn -0.9990 0.0004 -0.0436
vn -0.9999 -0.0113 -0.0000
vn 0.0242 -0.0050 -0.9997
vn -0.0355 0.0211 -0.9991
vn -0.0125 0.0103 -0.9999
vn 0.0181 0.0033 -0.9998
vn -0.0045 0.1686 0.9857
vn -0.0209 -0.0150 0.9997
vn -0.1428 0.0149 0.9896
vn -0.0023 -0.0031 1.0000
vn 0.8313 0.5313 -0.1634
vn 0.7512 0.6574 -0.0595
vn 0.7009 0.7039 0.1153
vn 0.0320 0.5657 -0.8240
vn -0.0088 0.5220 -0.8529
vn 0.0576 0.5926 0.8034
vn -0.0194 0.5270 0.8497
vn -0.7837 0.6208 0.0219
vn -0.7226 0.6855 -0.0894
vn 0.0087 0.9998 -0.0201
vn 0.0137 0.9999 -0.0061
vn 0.0440 0.9987 0.0275
vn -0.0186 0.9998 -0.0019
vn 0.0309 0.9989 0.0367
vn -0.0123 -0.9997 -0.0218
vn -0.0414 -0.9991 -0.0105
vn 0.0236 -0.9997 -0.0097
vn -0.0859 0.9928 -0.0830
vn -0.0045 0.9999 0.0092
vn -0.0039 0.9990 -0.0447
vn -0.0021 0.9999 -0.0115
vn -0.0045 0.9943 -0.1068
vn -0.0052 0.9939 -0.1106
vn 0.0191 0.9998 0.0059
vn -0.9579 0.2831 0.0471
vn -0.5224 0.8522 -0.0300
vn -0.9602 0.2794 0.0025
vn -0.0171 0.9348 0.3549
vn -0.1120 0.9904 0.0814
vn -0.0707 0.9964 -0.0473
vn 0.7131 -0.6942 0.0977
vn 0.9329 -0.3599 0.0085
vn 0.7080 -0.6895 -0.1528
vn -0.8404 -0.5382 -0.0639
vn -0.5086 -0.8538 -0.1112
vn -0.8249 -0.5289 -0.1994
vn -0.0176 0.9989 -0.0444
vn 0.1775 0.9753 -0.1314
vn -0.0997 0.9738 -0.2044
vn 0.9077 0.3888 -0.1578
vn 0.9187 0.3939 -0.0284
vn 0.9172 0.3975 -0.0285
vn -0.7164 0.6974 -0.0200
vn 0.0402 0.9991 -0.0120
vn -0.0857 0.9917 -0.0962
vn 0.0554 0.9979 -0.0343
vn -0.0105 -0.0114 -0.9999
vn -0.9182 -0.3938 -0.0432
vn -0.5085 -0.8538 -0.1112
vn -0.8961 -0.3849 -0.2209
vn 0.0290 -0.9927 -0.1173
vn -0.0342 -0.9978 -0.0567
vn -0.0277 -0.9995 0.0141
vn -0.0213 -0.9933 0.1133
vn 0.0344 -0.9994 -0.0000
vn 0.0032 -0.9998 0.0184
vn 0.0428 -0.9986 -0.0296
vn 0.0071 -1.0000 0.0053
vn 0.0558 -0.9984 -0.0016
vn -0.0101 -0.9999 -0.0013
vn -0.0189 -0.9953 0.0946
vn 0.0089 -0.9991 0.0417
vn -0.0102 -0.9979 -0.0634
vn -0.0179 -0.9934 -0.1129
vn -0.0112 -0.9996 -0.0264
vn -0.0485 -0.9470 -0.3175
vn -0.0162 0.3275 0.9447
vn -0.0414 -0.3878 0.9208
vn -0.0668 -0.9894 -0.1290
vn 0.9875 -0.1510 -0.0441
vn -0.0492 -0.1533 0.9870
vn -0.9816 -0.1854 0.0456
vn 0.0033 -0.1197 -0.9928
vn 0.9877 -0.1392 0.0713
vn 0.0112 -0.1131 0.9935
vn -0.9763 -0.2157 0.0167
vn 0.0490 -0.1528 -0.9870
vn 0.9795 -0.1996 -0.0260
vn -0.0224 -0.1117 0.9935
vn -0.9602 -0.0996 0.2608
vn -0.0950 -0.1561 -0.9832
vn 0.9695 -0.2431 -0.0320
vn -0.0333 -0.1892 0.9814
vn -0.9947 -0.1033 -0.0024
vn 0.0158 -0.0805 -0.9966
vn 0.9590 -0.2833 -0.0101
vn 0.9582 -0.2828 0.0420
usemtl Material
s off
f 98/1/1 115/2/1 114/3/1
f 34/4/2 17/5/2 85/6/2
f 6/7/1 3/8/1 2/9/1
f 35/10/3 10/11/3 88/12/3
f 4/13/4 13/14/4 1/15/4
f 1/16/5 86/17/5 4/18/5
f 5/19/6 9/20/6 1/16/6
f 4/18/7 35/21/7 8/22/7
f 8/22/8 33/23/8 5/19/8
f 13/14/9 16/24/9 15/25/9
f 5/26/10 16/24/10 8/27/10
f 1/15/11 15/25/11 5/26/11
f 4/13/12 16/24/12 14/28/12
f 22/29/13 87/30/13 21/31/13
f 21/31/1 34/32/1 23/33/1
f 24/34/14 18/35/14 22/29/14
f 23/33/1 36/36/1 24/34/1
f 2/37/15 31/38/15 6/39/15
f 21/31/16 26/40/16 22/29/16
f 6/39/16 32/41/16 7/42/16
f 24/34/15 26/40/15 28/43/15
f 30/44/1 25/45/1 29/46/1
f 29/46/1 27/47/1 31/38/1
f 32/41/1 26/40/1 30/44/1
f 31/38/1 28/43/1 32/41/1
f 24/34/17 27/47/17 23/33/17
f 23/33/18 25/45/18 21/31/18
f 7/42/18 30/44/18 3/48/18
f 3/48/17 29/46/17 2/37/17
f 11/49/17 34/4/17 33/50/17
f 12/51/17 33/50/17 35/10/17
f 19/52/17 36/53/17 34/4/17
f 20/54/17 35/10/17 36/53/17
f 11/49/1 41/55/1 37/56/1
f 20/54/1 40/57/1 44/58/1
f 12/51/1 44/58/1 41/55/1
f 72/59/19 83/60/19 84/61/19
f 50/62/20 40/63/20 37/64/20
f 41/65/21 60/66/21 37/64/21
f 56/67/22 44/68/22 40/63/22
f 58/69/23 41/65/23 44/68/23
f 19/52/1 37/56/1 40/57/1
f 38/70/24 63/71/24 64/72/24
f 48/73/25 58/69/25 43/74/25
f 46/75/26 53/76/26 60/66/26
f 47/77/27 51/78/27 39/79/27
f 100/80/28 102/81/28 105/82/28
f 54/83/29 57/84/29 56/67/29
f 52/85/30 55/86/30 46/75/30
f 52/85/31 59/87/31 42/88/31
f 62/89/32 77/90/32 65/91/32
f 47/92/33 65/93/33 66/94/33
f 45/95/34 50/62/34 38/96/34
f 43/97/35 67/98/35 68/99/35
f 61/100/36 76/101/36 74/102/36
f 69/103/37 80/104/37 82/105/37
f 39/106/38 65/91/38 47/107/38
f 42/108/39 71/109/39 52/110/39
f 74/111/40 73/112/40 78/113/40
f 64/72/41 75/114/41 76/101/41
f 65/93/42 78/115/42 66/94/42
f 55/116/43 71/109/43 54/117/43
f 66/94/44 75/118/44 63/119/44
f 80/120/45 84/121/45 81/122/45
f 70/123/46 83/60/46 71/109/46
f 68/99/47 79/124/47 80/104/47
f 48/125/48 68/99/48 70/126/48
f 93/127/1 107/128/1 108/129/1
f 94/130/1 110/131/1 111/132/1
f 90/133/1 106/134/1 107/128/1
f 87/135/49 90/133/49 89/136/49
f 18/137/50 91/138/50 87/135/50
f 18/137/51 93/127/51 92/139/51
f 89/136/52 94/130/52 86/140/52
f 88/12/53 97/141/53 96/142/53
f 10/11/54 94/130/54 97/141/54
f 85/6/55 98/1/55 9/143/55
f 90/133/56 96/142/56 95/144/56
f 86/140/57 100/80/57 89/136/57
f 9/143/58 101/145/58 86/140/58
f 85/6/59 103/146/59 102/81/59
f 17/5/60 104/147/60 103/146/60
f 89/136/61 104/147/61 87/135/61
f 110/131/1 129/148/1 126/149/1
f 120/150/1 134/151/1 136/152/1
f 112/153/1 127/154/1 128/155/1
f 118/156/1 135/157/1 134/151/1
f 97/141/1 111/132/1 112/153/1
f 102/81/1 119/158/1 118/156/1
f 91/138/1 109/159/1 106/134/1
f 101/145/1 114/3/1 116/160/1
f 95/144/1 113/161/1 110/131/1
f 105/82/1 118/156/1 120/150/1
f 92/139/1 108/129/1 109/159/1
f 99/162/1 117/163/1 115/2/1
f 96/142/1 112/153/1 113/161/1
f 103/146/1 121/164/1 119/158/1
f 100/80/1 116/160/1 117/163/1
f 104/147/1 120/150/1 121/164/1
f 138/165/62 140/166/62 141/167/62
f 142/168/63 144/169/63 145/170/63
f 147/171/64 149/172/64 146/173/64
f 150/174/65 152/175/65 153/176/65
f 119/158/1 137/177/1 135/157/1
f 113/161/1 128/155/1 129/148/1
f 107/128/1 122/178/1 123/179/1
f 121/164/1 136/152/1 137/177/1
f 114/3/1 131/180/1 130/181/1
f 108/129/1 123/179/1 124/182/1
f 116/160/1 130/181/1 132/183/1
f 106/134/1 125/184/1 122/178/1
f 115/2/1 133/185/1 131/180/1
f 109/159/1 124/182/1 125/184/1
f 117/163/1 132/183/1 133/185/1
f 111/132/1 126/149/1 127/154/1
f 122/178/66 138/165/66 123/179/66
f 122/178/67 140/166/67 139/186/67
f 124/182/68 140/166/68 125/184/68
f 124/182/69 138/165/69 141/167/69
f 127/154/70 143/187/70 142/168/70
f 129/148/71 143/187/71 126/149/71
f 129/148/72 145/170/72 144/169/72
f 127/154/73 145/170/73 128/155/73
f 131/180/74 146/173/74 130/181/74
f 131/180/75 148/188/75 147/171/75
f 132/183/76 148/188/76 133/185/76
f 132/183/77 146/173/77 149/172/77
f 135/157/78 150/174/78 134/151/78
f 137/177/79 151/189/79 135/157/79
f 136/152/80 152/175/80 137/177/80
f 136/152/81 150/174/81 153/176/81
f 45/190/82 64/191/82 62/192/82
f 98/1/1 99/162/1 115/2/1
f 85/6/83 9/143/83 33/50/83
f 33/50/84 34/4/84 85/6/84
f 6/7/1 7/193/1 3/8/1
f 88/12/85 18/137/85 36/53/85
f 36/53/86 35/10/86 88/12/86
f 4/13/4 14/28/4 13/14/4
f 10/194/87 4/18/87 86/17/87
f 1/16/88 9/20/88 86/17/88
f 5/19/89 33/23/89 9/20/89
f 4/18/90 10/194/90 35/21/90
f 8/22/8 35/21/8 33/23/8
f 13/14/9 14/28/9 16/24/9
f 5/26/10 15/25/10 16/24/10
f 1/15/11 13/14/11 15/25/11
f 4/13/12 8/27/12 16/24/12
f 17/195/91 21/31/91 87/30/91
f 22/29/92 18/35/92 87/30/92
f 21/31/93 17/195/93 34/32/93
f 24/34/94 36/36/94 18/35/94
f 23/33/1 34/32/1 36/36/1
f 2/37/15 29/46/15 31/38/15
f 21/31/16 25/45/16 26/40/16
f 6/39/16 31/38/16 32/41/16
f 24/34/15 22/29/15 26/40/15
f 30/44/1 26/40/1 25/45/1
f 29/46/1 25/45/1 27/47/1
f 32/41/1 28/43/1 26/40/1
f 31/38/1 27/47/1 28/43/1
f 24/34/17 28/43/17 27/47/17
f 23/33/18 27/47/18 25/45/18
f 7/42/18 32/41/18 30/44/18
f 3/48/17 30/44/17 29/46/17
f 11/49/17 19/52/17 34/4/17
f 12/51/17 11/49/17 33/50/17
f 19/52/17 20/54/17 36/53/17
f 20/54/17 12/51/17 35/10/17
f 11/49/1 12/51/1 41/55/1
f 20/54/1 19/52/1 40/57/1
f 12/51/1 20/54/1 44/58/1
f 79/196/95 67/197/95 84/61/95
f 72/59/19 71/109/19 83/60/19
f 84/61/95 67/197/95 72/59/95
f 37/64/96 53/76/96 50/62/96
f 50/62/97 51/78/97 40/63/97
f 53/76/98 37/64/98 60/66/98
f 41/65/99 59/87/99 60/66/99
f 40/63/100 51/78/100 56/67/100
f 56/67/101 57/84/101 44/68/101
f 44/68/102 57/84/102 58/69/102
f 58/69/103 59/87/103 41/65/103
f 19/52/1 11/49/1 37/56/1
f 38/70/24 46/198/24 63/71/24
f 48/73/104 42/88/104 58/69/104
f 59/87/105 58/69/105 42/88/105
f 57/84/106 43/74/106 58/69/106
f 46/75/107 38/96/107 53/76/107
f 47/77/108 56/67/108 51/78/108
f 105/82/109 89/136/109 100/80/109
f 100/80/110 99/162/110 102/81/110
f 85/6/111 102/81/111 99/162/111
f 54/83/112 43/74/112 57/84/112
f 56/67/113 47/77/113 54/83/113
f 49/199/114 46/75/114 55/86/114
f 60/66/115 52/85/115 46/75/115
f 55/86/116 54/83/116 49/199/116
f 47/77/117 49/199/117 54/83/117
f 52/85/118 60/66/118 59/87/118
f 62/89/32 74/102/32 77/90/32
f 63/119/119 46/200/119 47/92/119
f 49/201/120 47/92/120 46/200/120
f 66/94/121 63/119/121 47/92/121
f 45/95/122 39/79/122 50/62/122
f 51/78/123 50/62/123 39/79/123
f 53/76/124 38/96/124 50/62/124
f 43/97/35 54/202/35 67/98/35
f 61/100/125 64/72/125 76/101/125
f 76/101/126 73/203/126 74/102/126
f 74/102/127 62/89/127 61/100/127
f 69/103/128 68/99/128 80/104/128
f 80/104/129 81/204/129 82/105/129
f 82/105/130 70/126/130 69/103/130
f 39/106/38 62/89/38 65/91/38
f 42/108/39 70/123/39 71/109/39
f 75/205/131 78/113/131 76/206/131
f 77/207/132 74/111/132 78/113/132
f 73/112/133 76/206/133 78/113/133
f 64/72/41 63/71/41 75/114/41
f 65/93/42 77/208/42 78/115/42
f 67/197/134 54/117/134 72/59/134
f 55/116/135 52/110/135 71/109/135
f 72/59/136 54/117/136 71/109/136
f 66/94/137 78/115/137 75/118/137
f 82/209/138 81/122/138 84/121/138
f 80/120/139 79/210/139 84/121/139
f 84/121/140 83/211/140 82/209/140
f 70/123/141 82/212/141 83/60/141
f 68/99/47 67/98/47 79/124/47
f 48/125/142 43/97/142 68/99/142
f 68/99/143 69/103/143 70/126/143
f 70/126/144 42/213/144 48/125/144
f 93/127/1 90/133/1 107/128/1
f 94/130/1 95/144/1 110/131/1
f 90/133/1 91/138/1 106/134/1
f 87/135/145 91/138/145 90/133/145
f 18/137/146 92/139/146 91/138/146
f 18/137/147 88/12/147 93/127/147
f 89/136/148 95/144/148 94/130/148
f 88/12/149 10/11/149 97/141/149
f 10/11/150 86/140/150 94/130/150
f 85/6/151 99/162/151 98/1/151
f 95/144/152 89/136/152 90/133/152
f 90/133/153 93/127/153 96/142/153
f 88/12/154 96/142/154 93/127/154
f 86/140/155 101/145/155 100/80/155
f 9/143/156 98/1/156 101/145/156
f 85/6/157 17/5/157 103/146/157
f 17/5/158 87/135/158 104/147/158
f 89/136/159 105/82/159 104/147/159
f 110/131/1 113/161/1 129/148/1
f 120/150/1 118/156/1 134/151/1
f 112/153/1 111/132/1 127/154/1
f 118/156/1 119/158/1 135/157/1
f 97/141/1 94/130/1 111/132/1
f 102/81/1 103/146/1 119/158/1
f 91/138/1 92/139/1 109/159/1
f 101/145/1 98/1/1 114/3/1
f 95/144/1 96/142/1 113/161/1
f 105/82/1 102/81/1 118/156/1
f 92/139/1 93/127/1 108/129/1
f 99/162/1 100/80/1 117/163/1
f 96/142/1 97/141/1 112/153/1
f 103/146/1 104/147/1 121/164/1
f 100/80/1 101/145/1 116/160/1
f 104/147/1 105/82/1 120/150/1
f 138/165/160 139/186/160 140/166/160
f 142/168/161 143/187/161 144/169/161
f 147/171/162 148/188/162 149/172/162
f 150/174/163 151/189/163 152/175/163
f 119/158/1 121/164/1 137/177/1
f 113/161/1 112/153/1 128/155/1
f 107/128/1 106/134/1 122/178/1
f 121/164/1 120/150/1 136/152/1
f 114/3/1 115/2/1 131/180/1
f 108/129/1 107/128/1 123/179/1
f 116/160/1 114/3/1 130/181/1
f 106/134/1 109/159/1 125/184/1
f 115/2/1 117/163/1 133/185/1
f 109/159/1 108/129/1 124/182/1
f 117/163/1 116/160/1 132/183/1
f 111/132/1 110/131/1 126/149/1
f 122/178/164 139/186/164 138/165/164
f 122/178/165 125/184/165 140/166/165
f 124/182/166 141/167/166 140/166/166
f 124/182/167 123/179/167 138/165/167
f 127/154/168 126/149/168 143/187/168
f 129/148/169 144/169/169 143/187/169
f 129/148/170 128/155/170 145/170/170
f 127/154/171 142/168/171 145/170/171
f 131/180/172 147/171/172 146/173/172
f 131/180/173 133/185/173 148/188/173
f 132/183/174 149/172/174 148/188/174
f 132/183/175 130/181/175 146/173/175
f 135/157/176 151/189/176 150/174/176
f 137/177/177 152/175/177 151/189/177
f 136/152/178 153/176/178 152/175/178
f 136/152/179 134/151/179 150/174/179
f 45/190/180 38/214/180 64/191/180
f 64/191/126 61/215/126 62/192/126
f 62/192/181 39/216/181 45/190/181
